<?xml version="1.0" encoding="UTF-8"?>
<svg width="32px" height="32px" viewBox="0 0 32 32" version="1.1" xmlns="http://www.w3.org/2000/svg" xmlns:xlink="http://www.w3.org/1999/xlink">
    <!-- Generator: Sketch 49 (51002) - http://www.bohemiancoding.com/sketch -->
    <title>Instragram@svg</title>
    <desc>Created with Sketch.</desc>
    <defs>
        <polygon id="path-1" points="0.00029471527 0.0708 16.7292 0.0708 16.7292 16.8 0.00029471527 16.8"></polygon>
    </defs>
    <g id="Instragram" stroke="none" stroke-width="1" fill="none" fill-rule="evenodd">
        <g id="INSTRAGRAM" transform="translate(8.000000, 6.733333)">
            <path d="M12.9234,4.21296 C12.3714,4.20096 11.9142,4.63896 11.9034,5.19096 C11.8926,5.74296 12.3306,6.20016 12.8826,6.21216 C13.4334,6.22296 13.8906,5.78496 13.9014,5.23296 C13.9134,4.68096 13.4754,4.22376 12.9234,4.21296" id="Fill-1" fill="#333333"></path>
            <path d="M8.30628,12.34056 C6.77388,12.30936 5.55708,11.04096 5.58828,9.50736 C5.62068,7.97376 6.88908,6.75696 8.42268,6.78936 C9.95628,6.82056 11.17308,8.09016 11.14068,9.62256 C11.10828,11.15616 9.83988,12.37296 8.30628,12.34056 M8.45388,5.28816 C6.09108,5.23896 4.13748,7.11456 4.08828,9.47616 C4.03908,11.83776 5.91348,13.79136 8.27628,13.84056 C10.63668,13.89096 12.59148,12.01536 12.64068,9.65376 C12.68988,7.29216 10.81548,5.33736 8.45388,5.28816" id="Fill-3" fill="#333333"></path>
            <g id="Group-7" transform="translate(0.000000, 1.129440)">
                <mask id="mask-2" fill="white">
                    <use xlink:href="#path-1"></use>
                </mask>
                <g id="Clip-6"></g>
                <path d="M15.0738,11.9418 C15.0186,12.753 14.8746,13.191 14.7534,13.4826 C14.595,13.8678 14.409,14.1414 14.1114,14.427 C13.8138,14.7126 13.533,14.8866 13.1418,15.0294 C12.8454,15.1374 12.4002,15.2646 11.589,15.2838 C10.7094,15.3054 10.4466,15.309 8.2218,15.2622 C5.9994,15.2166 5.7354,15.2022 4.8582,15.1434 C4.0482,15.0906 3.609,14.9454 3.3186,14.8254 C2.9322,14.6658 2.6586,14.4798 2.373,14.1822 C2.0886,13.8846 1.9134,13.6038 1.7706,13.2114 C1.6626,12.9162 1.5366,12.4722 1.5162,11.6598 C1.4946,10.7802 1.491,10.5162 1.5378,8.2926 C1.5846,6.069 1.599,5.8062 1.6554,4.929 C1.7094,4.1178 1.8546,3.6798 1.9746,3.3894 C2.1342,3.003 2.3202,2.7294 2.6178,2.4438 C2.9154,2.1594 3.1974,1.9842 3.5886,1.8414 C3.885,1.7334 4.3278,1.6074 5.1414,1.587 C6.0198,1.5654 6.2838,1.5618 8.5062,1.6086 C10.731,1.6542 10.9938,1.6686 11.871,1.7262 C12.6822,1.7814 13.1202,1.9254 13.4106,2.0454 C13.7982,2.205 14.0706,2.391 14.355,2.6886 C14.6418,2.9862 14.8158,3.267 14.9586,3.6594 C15.0666,3.9546 15.1938,4.3986 15.213,5.211 C15.2358,6.0906 15.2382,6.3534 15.1926,8.577 C15.1458,10.8006 15.1314,11.0646 15.0738,11.9418 M16.7142,5.1738 C16.6926,4.287 16.563,3.6786 16.3686,3.1446 C16.167,2.5926 15.8934,2.1222 15.4398,1.6494 C14.9862,1.1766 14.5278,0.8826 13.9842,0.6582 C13.4586,0.4422 12.8562,0.2886 11.9706,0.2298 C11.0838,0.1698 10.7994,0.1554 8.5386,0.1074 C6.2766,0.0606 5.9934,0.0642 5.103,0.087 C4.2162,0.1086 3.6078,0.237 3.0738,0.4314 C2.5218,0.633 2.0514,0.9078 1.5798,1.3614 C1.1058,1.815 0.8118,2.2722 0.5886,2.8158 C0.3714,3.3414 0.2178,3.9438 0.159,4.8294 C0.099,5.7174 0.0846,5.9994 0.0378,8.2614 C-0.0102,10.5234 -0.0054,10.8066 0.015,11.6958 C0.0378,12.5838 0.165,13.1922 0.3606,13.725 C0.561,14.2782 0.837,14.7486 1.2906,15.2202 C1.7442,15.693 2.2014,15.9882 2.7462,16.2126 C3.2706,16.4286 3.873,16.5822 4.7586,16.641 C5.6466,16.6998 5.9298,16.7166 8.1918,16.7634 C10.4526,16.8102 10.737,16.8066 11.6262,16.785 C12.513,16.7622 13.1214,16.635 13.6554,16.4394 C14.2062,16.2378 14.6778,15.963 15.1494,15.5094 C15.6222,15.0558 15.9174,14.5974 16.1418,14.055 C16.3578,13.5294 16.5114,12.927 16.5702,12.0414 C16.6302,11.1534 16.6458,10.8702 16.6926,8.6094 C16.7394,6.3474 16.7358,6.0642 16.7142,5.1738" id="Fill-5" fill="#333333" mask="url(#mask-2)"></path>
            </g>
        </g>
    </g>
</svg>