<?xml version="1.0" encoding="UTF-8"?>
<svg width="32px" height="32px" viewBox="0 0 32 32" version="1.1" xmlns="http://www.w3.org/2000/svg" xmlns:xlink="http://www.w3.org/1999/xlink">
    <!-- Generator: Sketch 49 (51002) - http://www.bohemiancoding.com/sketch -->
    <title>Pinterest@svg</title>
    <desc>Created with Sketch.</desc>
    <defs></defs>
    <g id="Pinterest" stroke="none" stroke-width="1" fill="none" fill-rule="evenodd">
        <g id="PINTEREST" transform="translate(10.000000, 7.766667)" fill="#333333">
            <path d="M1.76290888,8.96396703 C1.95981918,9.04458132 2.13657591,8.9672709 2.19406315,8.74921586 C2.23337913,8.59822927 2.32753926,8.21663296 2.36949834,8.05804748 C2.42764635,7.84197477 2.40484968,7.76631628 2.24560343,7.57865679 C1.89902808,7.16930802 1.67766918,6.6396986 1.67766918,5.88972143 C1.67766918,3.71445727 3.30515267,1.76715974 5.91586613,1.76715974 C8.22724949,1.76715974 9.49725488,3.17956166 9.49725488,5.06639849 C9.49725488,7.54826124 8.39905043,9.64291112 6.76826308,9.64291112 C5.86762971,9.64291112 5.19397181,8.89822014 5.40938375,7.98503208 C5.66873709,6.89442652 6.16960289,5.71759011 6.16960289,4.93027928 C6.16960289,4.22556506 5.79131045,3.63780762 5.00862503,3.63780762 C4.08783809,3.63780762 3.34843329,4.59031166 3.34843329,5.86593361 C3.34843329,6.67835381 3.62331479,7.22811681 3.62331479,7.22811681 C3.62331479,7.22811681 2.68105273,11.2198455 2.51585952,11.9186128 C2.18679465,13.3105307 2.46630156,15.0173069 2.49008938,15.1897687 C2.50429599,15.2921884 2.6354594,15.3163067 2.69459857,15.2393266 C2.77983827,15.1283168 3.87606039,13.7747236 4.24840588,12.4221217 C4.35445992,12.0395342 4.85433457,10.0565549 4.85433457,10.0565549 C5.15333428,10.6268019 6.02753673,11.1289892 6.95691372,11.1289892 C9.72456073,11.1289892 11.601486,8.60648893 11.601486,5.22960937 C11.601486,2.67638315 9.43910687,0.29826173 6.15209241,0.29826173 C2.06223897,0.29826173 -3.30386416e-05,3.23044117 -3.30386416e-05,5.67563104 C-3.30386416e-05,7.15642295 0.560632709,8.47367359 1.76290888,8.96396703" id="Combined-Shape"></path>
        </g>
    </g>
</svg>