<?xml version="1.0" encoding="utf-8"?>
<!-- Generator: Adobe Illustrator 26.0.2, SVG Export Plug-In . SVG Version: 6.00 Build 0)  -->
<svg version="1.1" id="Layer_1" xmlns="http://www.w3.org/2000/svg" xmlns:xlink="http://www.w3.org/1999/xlink" x="0px" y="0px"
	 viewBox="0 0 1024 768" style="enable-background:new 0 0 1024 768;" xml:space="preserve">
<path fill="#333333" d="M772.57,228.19c0.53,4.6,0.83,88.46,0.41,99.83c-0.03,0.77-0.2,1.53-0.29,2.22c-7.54,1.53-32.49-0.75-50.08-4.51
	c-16.62-3.55-32.74-8.64-48.3-15.47c-15.38-6.75-29.91-15.05-44.08-25.01c-0.28,1.35-0.53,2.07-0.56,2.79
	c-0.07,1.6-0.03,3.2-0.03,4.8c0,67.16,0.05,134.33-0.02,201.49c-0.05,43.08-13.34,81.78-39.79,115.7
	c-28.96,37.13-66.8,60.38-112.95,69.85c-18.76,3.85-37.74,4.38-56.8,2.43c-76.47-7.82-143.71-63.62-163.6-142.12
	c-4.46-17.63-6.15-35.54-5.51-53.72c2.49-71.28,46.07-135.77,111.57-165.32c18.06-8.15,36.92-13.32,56.63-15.48
	c14.86-1.63,29.68-1.48,44.5,0.36c0.47,0.06,0.92,0.24,1.66,0.44c0.16,0.98,0.47,2.04,0.49,3.1c0.07,3.52,0.03,7.04,0.03,10.55
	c0,28.47,0.01,56.93-0.02,85.4c0,1.72,0.41,3.51-0.63,5.47c-1.31-0.26-2.68-0.47-4.02-0.82c-7-1.82-14.1-2.76-21.34-2.66
	c-25.92,0.36-47.59,10.27-64.65,29.65c-16.25,18.45-23.26,40.32-21.01,64.74c3.73,40.47,33.95,69.38,68.21,76.64
	c45.8,9.71,91.02-18.94,101.97-64.8c1.49-6.23,2.34-12.57,2.29-19c-0.01-0.8,0-1.6,0-2.4c0.01-92.91,0.02-185.82,0.04-278.73
	c0.01-40.94,0.03-81.88,0.04-122.82c0-1.75,0-3.5,0-5.46c1.08-0.26,1.95-0.58,2.83-0.67c1.11-0.11,2.24-0.04,3.36-0.04
	c30.22,0,60.45-0.01,90.67,0.02c1.87,0,3.82-0.37,5.76,0.55c0.67,2.66,0.57,5.39,0.71,8.07c0.63,11.39,2.71,22.52,6.03,33.42
	c14.94,48.97,55.95,86.77,105.95,97.79c8.78,1.93,17.66,2.87,26.6,3.39C769.88,227.95,771.13,228.08,772.57,228.19z"/>
</svg>
