<?xml version="1.0" encoding="UTF-8"?>
<svg width="32px" height="32px" viewBox="0 0 32 32" version="1.1" xmlns="http://www.w3.org/2000/svg" xmlns:xlink="http://www.w3.org/1999/xlink">
    <!-- Generator: Sketch 49 (51002) - http://www.bohemiancoding.com/sketch -->
    <title>Twitter@svg</title>
    <desc>Created with Sketch.</desc>
    <defs></defs>
    <g id="Twitter" stroke="none" stroke-width="1" fill="none" fill-rule="evenodd">
        <g id="TWITTER" transform="translate(7.133333, 8.400000)" fill="#333333">
            <path d="M0.441477887,12.8935616 C1.97137309,13.8744335 3.78861532,14.4470574 5.74083613,14.4470574 C12.1593572,14.4470574 15.7855608,9.02555594 15.5669452,4.16301486 C16.2422521,3.67609828 16.8285394,3.06745256 17.2918554,2.37351363 C16.6716165,2.64843931 16.0054185,2.83434539 15.3065111,2.91756838 C16.0199101,2.49068828 16.5681053,1.81289709 16.8260551,1.00509586 C16.158201,1.40133665 15.4183031,1.68909772 14.6312041,1.84436449 C14.000614,1.17236992 13.102137,0.752942632 12.1076016,0.752942632 C9.87631469,0.752942632 8.2362836,2.83517348 8.74017601,4.997729 C5.86711977,4.85364144 3.31950267,3.47735682 1.6148806,1.3851889 C0.70895077,2.93951275 1.14493985,4.97247227 2.68477213,6.00137338 C2.11794492,5.98356945 1.58424129,5.8274746 1.11844099,5.56869665 C1.08117696,7.17063564 2.22849486,8.66823535 3.89129841,9.00236943 C3.40438183,9.13486374 2.87150629,9.16467496 2.33034985,9.06116378 C2.76965129,10.4353782 4.04656518,11.434054 5.55948455,11.4622091 C4.10660166,12.6016601 2.27569595,13.110107 0.441477887,12.8935616" id="Combined-Shape"></path>
        </g>
    </g>
</svg>