<?xml version="1.0" encoding="UTF-8"?>
<svg width="32px" height="32px" viewBox="0 0 32 32" version="1.1" xmlns="http://www.w3.org/2000/svg" xmlns:xlink="http://www.w3.org/1999/xlink">
    <!-- Generator: Sketch 49 (51002) - http://www.bohemiancoding.com/sketch -->
    <title>YouTube@svg</title>
    <desc>Created with Sketch.</desc>
    <defs></defs>
    <g id="YouTube" stroke="none" stroke-width="1" fill="none" fill-rule="evenodd">
        <g id="YOUTUBE" transform="translate(7.133333, 9.666667)" fill="#333333">
            <path d="M17.1478959,2.0265567 C17.5139306,3.39237496 17.5139306,6.24208255 17.5139306,6.24208255 C17.5139306,6.24208255 17.5139306,9.09179013 17.1478959,10.4574642 C16.9464975,11.2110142 16.3529706,11.8045411 15.5994207,12.0059394 C14.2336024,12.3719741 8.75692203,12.3719741 8.75692203,12.3719741 C8.75692203,12.3719741 3.28024164,12.3719741 1.91442338,12.0059394 C1.16087344,11.8045411 0.567346548,11.2110142 0.365948183,10.4574642 C5.76659601e-05,9.09179013 5.76659601e-05,6.24208255 5.76659601e-05,6.24208255 C5.76659601e-05,6.24208255 5.76659601e-05,3.39237496 0.365948183,2.0265567 C0.567346548,1.27300677 1.16087344,0.679624038 1.91442338,0.478225672 C3.28024164,0.112190991 8.75692203,0.112190991 8.75692203,0.112190991 C8.75692203,0.112190991 14.2336024,0.112190991 15.5994207,0.478225672 C16.3529706,0.679624038 16.9464975,1.27300677 17.1478959,2.0265567 Z M7.00553474,8.86917069 L11.5556673,6.24205371 L7.00553474,3.61493674 L7.00553474,8.86917069 Z" id="Combined-Shape"></path>
        </g>
    </g>
</svg>